<svg id="Capa_1" enable-background="new 0 0 512 512" height="512" viewBox="0 0 512 512" width="512" xmlns="http://www.w3.org/2000/svg"><g><g><g><g><path d="m77.223 0h30v67.567h-30z" fill="#c7c0dd"/></g><g><path d="m186.408 0h30v67.567h-30z" fill="#c7c0dd"/></g><g><path d="m295.593 0h30v67.567h-30z" fill="#a69fc4"/></g><g><path d="m404.777 0h30v67.567h-30z" fill="#a69fc4"/></g></g><g><path d="m0 160.682v351.318h256l69.593-412.145z" fill="#052e8a"/><path d="m512 160.682-256-60.827v412.145h256z" fill="#042468"/></g><g><path d="m63.734 160.682v287.584h192.266l63.918-249.631-63.918-90.375z" fill="#f2f2fc"/><path d="m448.266 160.682-192.266-52.422v340.006h192.266z" fill="#e2d8fc"/></g><g><path d="m0 55.839v104.843h256l47.49-52.421-47.49-52.422z" fill="#397cff"/><path d="m256 55.839h256v104.844h-256z" fill="#4041d4"/></g></g><g><path d="m226.086 384.121 28.351 9.811 1.563-4.518 11.328-69.573-11.328-22.157z" fill="#052e8a"/><path d="m202.05 220.146v30h53.95l14.955-15-14.955-15z" fill="#052e8a"/><path d="m304.036 220.146h-48.036v30h16.452l-16.452 47.538v91.73l48.036-138.802z" fill="#042468"/></g></g></svg>