<svg id="Capa_1" enable-background="new 0 0 512 512" height="512" viewBox="0 0 512 512" width="512" xmlns="http://www.w3.org/2000/svg"><g id="XMLID_1068_"><path id="XMLID_1352_" d="m355.25 89.998h126.75c11.046 0 20 8.954 20 20v372c0 11.046-8.954 20-20 20h-452c-11.046 0-20-8.954-20-20v-372c0-11.046 8.954-20 20-20h46.75z" fill="#fff"/><path id="XMLID_1349_" d="m482 89.998h-126.75-278.5-46.75c-11.046 0-20 8.954-20 20v114.001h492v-114.001c0-11.046-8.954-20-20-20z" fill="#ffda8f"/><path id="XMLID_1348_" d="m397 416.998v85l105-105h-85c-11.046 0-20 8.954-20 20z" fill="#fff2a0"/><g id="XMLID_1329_"><g id="XMLID_1341_"><path id="XMLID_1345_" d="m139.457 144.92c0 15.027-16.036 24.841-29.271 17.723-19.466-10.469-32.729-31.037-32.729-54.645v-35.056c0-34.024 27.018-62.415 61.037-62.934 34.626-.528 62.963 27.485 62.963 61.993v17.998h-40v-17.458c0-11.914-9.246-22.074-21.151-22.524-12.516-.473-22.849 9.571-22.849 21.984v35.998c0 8.254 4.569 15.462 11.312 19.225 6.484 3.618 10.688 10.27 10.688 17.696z" fill="#fff"/></g><g id="XMLID_1330_"><g id="XMLID_1333_"><path id="XMLID_1337_" d="m372.543 144.92c0 15.027-16.036 24.841-29.271 17.723-19.466-10.469-32.729-31.037-32.729-54.645v-35.056c0-34.024 27.018-62.415 61.037-62.934 34.626-.528 62.963 27.485 62.963 61.993v17.998h-40v-17.458c0-11.914-9.246-22.074-21.151-22.524-12.516-.473-22.849 9.571-22.849 21.984v35.998c0 8.254 4.569 15.462 11.312 19.225 6.484 3.618 10.688 10.27 10.688 17.696z" fill="#fff"/></g><path id="XMLID_1213_" d="m482 79.998h-37.457v-7.998c0-19.413-7.636-37.625-21.501-51.281-13.861-13.651-32.178-20.973-51.614-20.71-39.086.597-70.885 33.314-70.885 72.933v7.057h-89.086v-7.999c0-19.413-7.636-37.625-21.501-51.281-13.861-13.651-32.219-20.973-51.614-20.71-39.086.596-70.885 33.314-70.885 72.932v7.057h-37.457c-16.542 0-30 13.458-30 30v372c0 16.542 13.458 30 30 30h452c16.542 0 30-13.458 30-30v-372c0-16.542-13.458-30-30-30zm-161.457-7.057c0-28.758 22.964-52.504 51.189-52.935.272-.004.543-.006.814-.006 13.72 0 26.641 5.298 36.461 14.969 10.018 9.867 15.535 23.018 15.535 37.031v7.998h-20v-7.457c0-17.582-13.518-31.865-30.773-32.517-8.784-.338-17.088 2.84-23.412 8.931-6.329 6.094-9.814 14.278-9.814 23.046v35.998c0 11.585 6.299 22.297 16.438 27.957 3.483 1.944 5.563 5.296 5.563 8.965 0 3.577-1.844 6.815-4.933 8.661-1.436.858-5.243 2.6-9.602.255-16.941-9.111-27.466-26.675-27.466-45.838zm40 7.057v-7.998c0-3.282 1.31-6.35 3.687-8.639 2.373-2.286 5.492-3.476 8.784-3.352 6.357.241 11.529 5.862 11.529 12.532v7.457zm-273.086-7.057c0-28.758 22.963-52.504 51.189-52.935.272-.004.542-.006.814-.006 13.72 0 26.642 5.298 36.461 14.969 10.019 9.867 15.536 23.018 15.536 37.031v7.998h-20v-7.457c0-17.582-13.517-31.865-30.773-32.517-8.78-.342-17.088 2.84-23.413 8.931-6.329 6.094-9.814 14.278-9.814 23.046v35.998c0 11.585 6.299 22.297 16.438 27.957 3.483 1.944 5.563 5.295 5.563 8.965 0 3.577-1.844 6.815-4.933 8.661-1.435.858-5.242 2.6-9.601.255-16.941-9.111-27.466-26.676-27.466-45.838v-35.058zm40 7.057v-7.998c0-3.282 1.309-6.35 3.687-8.639 2.375-2.286 5.497-3.481 8.784-3.352 6.357.241 11.529 5.862 11.529 12.532v7.457zm364.543 402c0 5.514-4.486 10-10 10h-452c-5.514 0-10-4.486-10-10v-372c0-5.514 4.486-10 10-10h37.457v8c0 26.535 14.558 50.849 37.993 63.453 4.426 2.38 9.234 3.566 14.041 3.566 5.271 0 10.541-1.427 15.294-4.268 9.188-5.491 14.673-15.146 14.673-25.829 0-10.857-6.06-20.984-15.815-26.429-3.815-2.129-6.185-6.15-6.185-10.493v-8h173.086v8c0 26.536 14.558 50.849 37.993 63.453 4.426 2.38 9.234 3.566 14.04 3.566 5.271 0 10.541-1.427 15.294-4.268 9.188-5.491 14.673-15.146 14.673-25.829 0-10.857-6.06-20.984-15.814-26.429-3.815-2.129-6.186-6.15-6.186-10.493v-8h121.456c5.514 0 10 4.486 10 10z" fill="#ffa96b"/></g></g><g id="XMLID_437_" fill="#5cd0b3"><path id="XMLID_438_" d="m239.105 329.29c0-19.851-16.149-36-36-36-17.165 0-32.021 12.21-35.324 29.034-1.064 5.419 2.466 10.675 7.886 11.739 5.422 1.069 10.675-2.466 11.739-7.886 1.466-7.467 8.069-12.887 15.699-12.887 8.822 0 16 7.178 16 16s-7.178 16-16 16c-5.523 0-10 4.477-10 10s4.477 10 10 10c8.822 0 16 7.178 16 16s-7.178 16-16 16c-7.939 0-14.75-5.914-15.845-13.757-.103-.736-.155-1.49-.155-2.243 0-5.523-4.477-10-10-10s-10 4.477-10 10c0 1.675.117 3.361.347 5.008 2.465 17.668 17.792 30.992 35.653 30.992 19.851 0 36-16.149 36-36 0-10.214-4.283-19.442-11.139-26 6.856-6.558 11.139-15.785 11.139-26z"/><path id="XMLID_441_" d="m306 294.485c-21.446 0-38.895 17.448-38.895 38.895v46.21c0 21.446 17.448 38.895 38.895 38.895s38.895-17.448 38.895-38.895v-46.21c0-21.447-17.449-38.895-38.895-38.895zm18.895 85.105c0 10.418-8.476 18.895-18.895 18.895s-18.895-8.476-18.895-18.895v-46.21c0-10.419 8.476-18.895 18.895-18.895s18.895 8.476 18.895 18.895z"/></g></g></svg>