<svg height="512pt" viewBox="0 0 512 512" width="512pt" xmlns="http://www.w3.org/2000/svg" xmlns:xlink="http://www.w3.org/1999/xlink"><linearGradient id="a" gradientUnits="userSpaceOnUse" x1="0" x2="512" y1="256" y2="256"><stop offset="0" stop-color="#00f1ff"/><stop offset=".231" stop-color="#00d8ff"/><stop offset=".5138" stop-color="#00c0ff"/><stop offset=".7773" stop-color="#00b2ff"/><stop offset="1" stop-color="#00adff"/></linearGradient><path d="m512 256c0 141.386719-114.613281 256-256 256s-256-114.613281-256-256 114.613281-256 256-256 256 114.613281 256 256zm0 0" fill="url(#a)"/><g fill="#fff"><path d="m271 256v-96.546875c0-8.285156-6.714844-15-15-15s-15 6.714844-15 15v81.546875h-52.585938c-8.28125 0-15 6.714844-15 15s6.71875 15 15 15h67.585938c8.285156 0 15-6.714844 15-15zm0 0"/><path d="m377.800781 304.359375h-1.023437c-19.632813 0-35.609375 15.976563-35.609375 35.609375v37.828125c0 19.636719 15.976562 35.609375 35.609375 35.609375h1.023437c19.632813 0 35.609375-15.972656 35.609375-35.609375v-37.828125c0-19.632812-15.976562-35.609375-35.609375-35.609375zm5.609375 73.441406c0 3.09375-2.519531 5.609375-5.609375 5.609375h-1.023437c-3.09375 0-5.609375-2.519531-5.609375-5.609375v-37.828125c0-3.09375 2.519531-5.613281 5.609375-5.613281h1.023437c3.09375 0 5.609375 2.519531 5.609375 5.613281zm0 0"/><path d="m298.84375 341.171875c-2.085938 0-4.128906.1875-6.121094.527344v-1.21875c0-3.375 2.746094-6.121094 6.121094-6.121094 2.421875 0 3.929688 1.316406 4.617188 2.101563 5.445312 6.246093 14.921874 6.890624 21.160156 1.445312 6.246094-5.445312 6.890625-14.921875 1.445312-21.164062-6.863281-7.871094-16.785156-12.382813-27.222656-12.382813-19.917969 0-36.121094 16.203125-36.121094 36.121094v36.808593c0 19.917969 16.203125 36.121094 36.121094 36.121094 19.914062 0 36.117188-16.203125 36.117188-36.121094.003906-19.917968-16.199219-36.117187-36.117188-36.117187zm0 42.238281c-3.375 0-6.121094-2.746094-6.121094-6.121094s2.746094-6.117187 6.121094-6.117187 6.121094 2.742187 6.121094 6.117187-2.746094 6.121094-6.121094 6.121094zm0 0"/><path d="m398.410156 134.796875c-8.285156 0-15 6.714844-15 15v13.773437c-29.25-40.25-76.425781-64.980468-127.410156-64.980468-86.796875 0-157.410156 70.613281-157.410156 157.410156 0 37.847656 13.628906 74.425781 38.378906 103.003906 24.488281 28.277344 58.242188 46.957032 95.039062 52.585938.769532.121094 1.53125.175781 2.289063.175781 7.28125 0 13.671875-5.3125 14.808594-12.730469 1.253906-8.191406-4.371094-15.84375-12.558594-17.097656-61.546875-9.421875-107.957031-63.558594-107.957031-125.9375 0-70.253906 57.15625-127.40625 127.410156-127.40625 43.546875 0 83.660156 22.28125 106.914062 58.097656h-16.398437c-8.285156 0-15 6.71875-15 15 0 8.285156 6.714844 15 15 15h27.757813c10.453124 0 20.28125-4.070312 27.671874-11.460937 7.394532-7.390625 11.464844-17.21875 11.464844-27.675781v-27.757813c0-8.285156-6.71875-15-15-15zm0 0"/></g></svg>