<?xml version="1.0" encoding="iso-8859-1"?>
<!-- Generator: Adobe Illustrator 19.0.0, SVG Export Plug-In . SVG Version: 6.00 Build 0)  -->
<svg version="1.1" id="Capa_1" xmlns="http://www.w3.org/2000/svg" xmlns:xlink="http://www.w3.org/1999/xlink" x="0px" y="0px"
	 viewBox="0 0 512 512" style="enable-background:new 0 0 512 512;" xml:space="preserve">
<rect x="230.5" y="336.02" style="fill:#00459F;" width="51" height="175.98"/>
<rect x="255.95" y="336.02" style="fill:#002D6B;" width="25.55" height="175.98"/>
<polygon style="fill:#FFAA20;" points="470.79,186.01 363.39,372.02 148.61,372.02 41.21,186.01 148.61,0 363.39,0 "/>
<polygon style="fill:#FF9A00;" points="470.79,186.01 363.39,372.02 255.95,372.02 255.95,0 363.39,0 "/>
<g>
	<path style="fill:#57555C;" d="M185.25,203.04v-60.53h-29.29c-2.46,4.92-18.61,14.34-24.31,14.34v26.27
		c8.34,0,21.25-6.04,24.31-10.12v30.04h-21.44v25.67h69.9v-25.67L185.25,203.04L185.25,203.04z"/>
	<path style="fill:#57555C;" d="M255.95,138.71c-20.51-0.8-41.57,14.46-41.57,45.77c0,31.21,21.06,46.48,41.57,45.71
		c19.47-0.74,38.44-15.94,38.44-45.71C294.39,154.73,275.42,139.48,255.95,138.71z M255.95,203.83c-6.1,1.5-12.89-4.93-12.89-19.35
		c0-14.49,6.79-20.99,12.89-19.5c4.96,1.21,9.46,7.72,9.46,19.5C265.41,196.16,260.91,202.62,255.95,203.83z"/>
	<path style="fill:#57555C;" d="M307.07,184.48c0,60.82,80.01,61.14,80.01,0C387.08,123.38,307.07,123.46,307.07,184.48z
		 M335.75,184.48c0-26.29,22.35-26.26,22.35,0C358.1,210.5,335.75,210.64,335.75,184.48z"/>
</g>
<g>
	<path style="fill:#3C3A41;" d="M294.39,184.48c0,29.77-18.97,44.97-38.44,45.71v-26.36c4.96-1.21,9.46-7.67,9.46-19.35
		c0-11.78-4.5-18.29-9.46-19.5v-26.27C275.42,139.48,294.39,154.73,294.39,184.48z"/>
	<path style="fill:#3C3A41;" d="M307.07,184.48c0,60.82,80.01,61.14,80.01,0C387.08,123.38,307.07,123.46,307.07,184.48z
		 M335.75,184.48c0-26.29,22.35-26.26,22.35,0C358.1,210.5,335.75,210.64,335.75,184.48z"/>
</g>
<g>
</g>
<g>
</g>
<g>
</g>
<g>
</g>
<g>
</g>
<g>
</g>
<g>
</g>
<g>
</g>
<g>
</g>
<g>
</g>
<g>
</g>
<g>
</g>
<g>
</g>
<g>
</g>
<g>
</g>
</svg>
